<svg xmlns="http://www.w3.org/2000/svg" viewBox="0 0 512 512" style="height: 512px; width: 512px;"><defs><radialGradient id="gradient-0"><stop offset="0%" stop-color="#f8e71c" stop-opacity="1"></stop><stop offset="100%" stop-color="#000" stop-opacity="1"></stop></radialGradient></defs><path d="M0 0h512v512H0z" fill="url(#pattern)"></path><svg><defs><linearGradient id="a" x1="240" y1="16" x2="240" y2="496" gradientUnits="userSpaceOnUse"><stop offset="0" stop-color="#7d787a"></stop><stop offset="1" stop-color="#423e44"></stop></linearGradient></defs><path fill="url(#a)" fill-rule="evenodd" d="M0 0h512v512H0z"></path><path d="M8 0l30.63 37.93 259.87-9.84 178.4 11.95L504 0H204.7l-10.2 8.779L159.4 0z" overflow="visible" fill="#fff" fill-opacity=".269" fill-rule="evenodd"></path><path d="M2.809 511.6l42.841-40.7L184 468.5l27.4 26.6 10.5-23.8 250.1 7 6.7 18.3 29.3 15.7z" overflow="visible" fill-opacity=".24" fill-rule="evenodd"></path><path d="M511.7 16.15l-39.1 50.39-2 324.26 10.1 19.9-7.3 53.5 20.9 9.1 18 23.8L512 215l-15.5-28.8 15.4-11.4z" overflow="visible" fill-opacity=".19" fill-rule="evenodd"></path><path d="M0 15.18L35.12 61.1l-8.61 93.8 10.19 13.9-5.13 97.4-14.85 18.9 12.62 23.3 7.5 83.9v57.4L-.743 496.5z" overflow="visible" fill="#fff" fill-opacity=".099" fill-rule="evenodd"></path><path d="M51.56 56.62L43.16 141l10.74 22.4-8.99 103.7-10.46 17.5 7.05 21.8 10.61 116.8 21.9 32.6 109.29.5 34.2-12.4 6.5 12.5 235.3 2.3 6.9-33.9-13.7-12.6 6.2-20.4-6-331.94-150-14.62-29.5 1.34-1.4 25.57-60.4-22.77z" overflow="visible" fill="#797677" fill-opacity=".434" fill-rule="evenodd"></path></svg><g class="" transform="translate(0,0)" style="touch-action: none;"><path d="M45.422 120.441L104 185.901c92.422-39.666 172.605-74.711 258.244-102.596-11.432-22.715-25.256-44.436-42.457-64.782C225.084 32.656 125.54 70.891 45.422 120.441zm324.623-20.707c-84.952 32.194-180.738 63.843-253.66 100.004l16.275 18.188c81.717-33.837 164.505-64.203 247.596-93.4a460.62 460.62 0 0 0-10.21-24.792zm16.3 41.73c-80.596 28.322-160.764 57.691-239.802 90.204 53.56-2.135 111.354-7.387 159.875-10.107 3.751 14.72 8.265 30.997 5.074 45.04 7.592-3.359 27.857-11.166 30.104-18.288-.634-11.477-10.749-19.435-11.416-29.442.574-4.677 2.278-8.948 5.369-11.46l59.875-37.343a694.697 694.697 0 0 0-9.078-28.603zm18.864 43.714L349.217 220.1c3.668 6.901 7.454 12.458 9.441 19.455 19.621-10.056 39.743-20.17 56.237-28.668-3.165-8.318-6.405-16.799-9.686-25.71zm16.07 42.67c-30.396 11.548-53.997 30.902-79.44 43.504l-.003.002c-5.568 2.912-18.061 8.935-33.435 17.273-1.67 2.832-2.687 6.234-3.143 9.9-.72 8.957 4.132 36.207 15.662 36.74 1.531.002 4.647-.844 8.957-10.005l16.287 7.664c-5.867 12.47-14.906 20.349-25.258 20.342-16.175-2.247-24.982-14.225-30.17-27.202l-23.75 45.045c2.253 7.684 1.628 16.235-3.459 26.02-18.92 36.4-44.875 64.715-68.039 96.346h139.553c14.647-29.632 22.728-69.27 51.152-88.897 21.192-14.633 56.217 5.461 63.319-11.67 3.665-8.84-1.23-17.344-6.733-26.1 0 0 10.246-3.328 10.754-7.708.366-3.15-6.256-7.163-6.256-7.163l7.393-6.427-8.299-13.817c8.113-3.701 22.274-8.624 19.953-13.584-7.797-16.662-20.642-31.746-30.965-47.619-.999-3.583-2.037-7.104-3.107-10.584-8.132-5.595-23.288-3.372-43.502 6.512 11.29-9.705 25.082-21.752 38.742-21.145a742.827 742.827 0 0 0-6.213-17.427zm-128.613 12.59c-49.301 3.194-87.67 6.292-132.15 8.613l11.664 13.035c49.068 4.95 81.505 2.18 121.469 1.387 1.727-7.805.28-16.884-.983-23.036zm129.774 29.427v24.719l-30.815-11.834zm-232.803 11.729l36.416 40.693c16.964-15.445 38.392-29.288 57.91-40.6-30.15.826-58.05 2.364-94.326-.093zm92.545 22.107c-16.258 9.98-32.767 21.474-45.389 33.184 6.957 5.18 13.75 10.564 19.233 16.424z" fill="#fff" fill-opacity="1"></path></g></svg>